<svg width="38" height="38" viewBox="0 0 38 38" fill="none" xmlns="http://www.w3.org/2000/svg">
<path d="M19 10C23.9706 10 28 14.0294 28 19C28 23.9706 23.9706 28 19 28C14.0294 28 10 23.9706 10 19C10 14.0294 14.0294 10 19 10Z" stroke="#D92D20" stroke-width="2"/>
<g opacity="0.3">
<path d="M19 6C26.1797 6 32 11.8203 32 19C32 26.1797 26.1797 32 19 32C11.8203 32 6 26.1797 6 19C6 11.8203 11.8203 6 19 6Z" stroke="#D92D20" stroke-width="2"/>
</g>
<g opacity="0.1">
<path d="M19 1C28.9411 1 37 9.05887 37 19C37 28.9411 28.9411 37 19 37C9.05887 37 1 28.9411 1 19C1 9.05887 9.05887 1 19 1Z" stroke="#D92D20" stroke-width="2"/>
</g>
<path d="M19.9375 22.375C19.9375 22.5604 19.8825 22.7417 19.7795 22.8958C19.6765 23.05 19.5301 23.1702 19.3588 23.2411C19.1875 23.3121 18.999 23.3307 18.8171 23.2945C18.6352 23.2583 18.4682 23.169 18.3371 23.0379C18.206 22.9068 18.1167 22.7398 18.0805 22.5579C18.0443 22.376 18.0629 22.1875 18.1339 22.0162C18.2048 21.8449 18.325 21.6985 18.4792 21.5955C18.6333 21.4925 18.8146 21.4375 19 21.4375C19.2486 21.4375 19.4871 21.5363 19.6629 21.7121C19.8387 21.8879 19.9375 22.1264 19.9375 22.375ZM19 20.5C19.1492 20.5 19.2923 20.4407 19.3977 20.3352C19.5032 20.2298 19.5625 20.0867 19.5625 19.9375V15.25C19.5625 15.1008 19.5032 14.9577 19.3977 14.8523C19.2923 14.7468 19.1492 14.6875 19 14.6875C18.8508 14.6875 18.7077 14.7468 18.6023 14.8523C18.4968 14.9577 18.4375 15.1008 18.4375 15.25V19.9375C18.4375 20.0867 18.4968 20.2298 18.6023 20.3352C18.7077 20.4407 18.8508 20.5 19 20.5Z" fill="#D92D20"/>
</svg>
