<svg width="38" height="38" viewBox="0 0 38 38" fill="none" xmlns="http://www.w3.org/2000/svg">
<path d="M19 10C23.9706 10 28 14.0294 28 19C28 23.9706 23.9706 28 19 28C14.0294 28 10 23.9706 10 19C10 14.0294 14.0294 10 19 10Z" stroke="#067647" stroke-width="2"/>
<g opacity="0.3">
<path d="M19 6C26.1797 6 32 11.8203 32 19C32 26.1797 26.1797 32 19 32C11.8203 32 6 26.1797 6 19C6 11.8203 11.8203 6 19 6Z" stroke="#067647" stroke-width="2"/>
</g>
<g opacity="0.1">
<path d="M19 1C28.9411 1 37 9.05887 37 19C37 28.9411 28.9411 37 19 37C9.05887 37 1 28.9411 1 19C1 9.05887 9.05887 1 19 1Z" stroke="#067647" stroke-width="2"/>
</g>
<path d="M23.8975 16.773L17.8975 22.773C17.8452 22.8254 17.7831 22.867 17.7147 22.8954C17.6464 22.9238 17.5731 22.9384 17.499 22.9384C17.425 22.9384 17.3517 22.9238 17.2833 22.8954C17.2149 22.867 17.1528 22.8254 17.1006 22.773L14.4756 20.148C14.4233 20.0957 14.3818 20.0335 14.3534 19.9652C14.3251 19.8968 14.3105 19.8235 14.3105 19.7496C14.3105 19.6756 14.3251 19.6023 14.3534 19.5339C14.3818 19.4656 14.4233 19.4034 14.4756 19.3511C14.5279 19.2988 14.59 19.2573 14.6584 19.229C14.7268 19.2006 14.8 19.1861 14.874 19.1861C14.948 19.1861 15.0213 19.2006 15.0897 19.229C15.158 19.2573 15.2201 19.2988 15.2725 19.3511L17.4995 21.5781L23.1015 15.977C23.2072 15.8714 23.3505 15.812 23.5 15.812C23.6494 15.812 23.7927 15.8714 23.8984 15.977C24.0041 16.0827 24.0634 16.226 24.0634 16.3755C24.0634 16.5249 24.0041 16.6683 23.8984 16.7739L23.8975 16.773Z" fill="#067647"/>
</svg>
