<svg width="38" height="38" viewBox="0 0 38 38" fill="none" xmlns="http://www.w3.org/2000/svg">
<path d="M19 10C23.9706 10 28 14.0294 28 19C28 23.9706 23.9706 28 19 28C14.0294 28 10 23.9706 10 19C10 14.0294 14.0294 10 19 10Z" stroke="#0D92F4" stroke-width="2"/>
<g opacity="0.3">
<path d="M19 6C26.1797 6 32 11.8203 32 19C32 26.1797 26.1797 32 19 32C11.8203 32 6 26.1797 6 19C6 11.8203 11.8203 6 19 6Z" stroke="#0D92F4" stroke-width="2"/>
</g>
<g opacity="0.1">
<path d="M19 1C28.9411 1 37 9.05887 37 19C37 28.9411 28.9411 37 19 37C9.05887 37 1 28.9411 1 19C1 9.05887 9.05887 1 19 1Z" stroke="#0D92F4" stroke-width="2"/>
</g>
<path d="M23.6875 19.75V22.75C23.6875 22.8991 23.6282 23.0422 23.5227 23.1477C23.4173 23.2532 23.2742 23.3125 23.125 23.3125H14.875C14.7258 23.3125 14.5827 23.2532 14.4773 23.1477C14.3718 23.0422 14.3125 22.8991 14.3125 22.75V19.75C14.3125 19.6008 14.3718 19.4577 14.4773 19.3522C14.5827 19.2467 14.7258 19.1875 14.875 19.1875C15.0242 19.1875 15.1673 19.2467 15.2727 19.3522C15.3782 19.4577 15.4375 19.6008 15.4375 19.75V22.1875H22.5625V19.75C22.5625 19.6008 22.6218 19.4577 22.7273 19.3522C22.8327 19.2467 22.9758 19.1875 23.125 19.1875C23.2742 19.1875 23.4173 19.2467 23.5227 19.3522C23.6282 19.4577 23.6875 19.6008 23.6875 19.75ZM17.523 16.7729L18.4375 15.8593V19.75C18.4375 19.8991 18.4968 20.0422 18.6023 20.1477C18.7077 20.2532 18.8508 20.3125 19 20.3125C19.1492 20.3125 19.2923 20.2532 19.3977 20.1477C19.5032 20.0422 19.5625 19.8991 19.5625 19.75V15.8593L20.477 16.7743C20.5294 16.8267 20.5915 16.8682 20.6598 16.8965C20.7282 16.9248 20.8015 16.9394 20.8755 16.9394C20.9495 16.9394 21.0227 16.9248 21.0911 16.8965C21.1595 16.8682 21.2216 16.8267 21.2739 16.7743C21.3262 16.722 21.3677 16.6599 21.3961 16.5915C21.4244 16.5232 21.4389 16.4499 21.4389 16.3759C21.4389 16.3019 21.4244 16.2286 21.3961 16.1603C21.3677 16.0919 21.3262 16.0298 21.2739 15.9775L19.3989 14.1025C19.3466 14.05 19.2846 14.0084 19.2162 13.98C19.1478 13.9516 19.0745 13.937 19.0005 13.937C18.9264 13.937 18.8531 13.9516 18.7848 13.98C18.7164 14.0084 18.6543 14.05 18.602 14.1025L16.727 15.9775C16.6747 16.0298 16.6332 16.0919 16.6049 16.1603C16.5766 16.2286 16.562 16.3019 16.562 16.3759C16.562 16.5253 16.6214 16.6687 16.727 16.7743C16.8327 16.88 16.976 16.9394 17.1255 16.9394C17.2749 16.9394 17.4182 16.88 17.5239 16.7743L17.523 16.7729Z" fill="#0D92F4"/>
</svg>
