<svg width="40" height="40" viewBox="0 0 40 40" fill="none" xmlns="http://www.w3.org/2000/svg">
<rect x="0.5" y="0.5" width="39" height="39" rx="19.5" fill="white"/>
<rect x="0.5" y="0.5" width="39" height="39" rx="19.5" stroke="#ECE7F8"/>
<path d="M25.0725 17.5362C25.0725 21.6984 21.6984 25.0725 17.5362 25.0725C13.3741 25.0725 10 21.6984 10 17.5362C10 13.3741 13.3741 10 17.5362 10C21.6984 10 25.0725 13.3741 25.0725 17.5362Z" fill="#740000"/>
<path d="M31.6667 24.1304C31.6667 28.2926 28.2926 31.6667 24.1304 31.6667C19.9683 31.6667 16.5942 28.2926 16.5942 24.1304C16.5942 19.9683 19.9683 16.5942 24.1304 16.5942C28.2926 16.5942 31.6667 19.9683 31.6667 24.1304Z" fill="#E5672C"/>
</svg>
