<svg width="60" height="60" viewBox="0 0 60 60" fill="none" xmlns="http://www.w3.org/2000/svg">
<g filter="url(#filter0_d_484_21948)">
<path d="M14 1.5H46C52.3513 1.5 57.5 6.64873 57.5 13V45C57.5 51.3513 52.3513 56.5 46 56.5H14C7.64873 56.5 2.5 51.3513 2.5 45V13C2.5 6.64873 7.64873 1.5 14 1.5Z" stroke="#EAECF0" shape-rendering="crispEdges"/>
<path d="M18.3335 23.1665L27.8592 29.8345C28.6306 30.3745 29.0163 30.6445 29.4358 30.749C29.8064 30.8414 30.194 30.8414 30.5645 30.749C30.984 30.6445 31.3697 30.3745 32.1411 29.8345L41.6668 23.1665M23.9335 38.3332H36.0668C38.027 38.3332 39.0071 38.3332 39.7558 37.9517C40.4144 37.6161 40.9498 37.0807 41.2854 36.4221C41.6668 35.6734 41.6668 34.6934 41.6668 32.7332V25.2665C41.6668 23.3063 41.6668 22.3262 41.2854 21.5775C40.9498 20.919 40.4144 20.3835 39.7558 20.048C39.0071 19.6665 38.027 19.6665 36.0668 19.6665H23.9335C21.9733 19.6665 20.9932 19.6665 20.2445 20.048C19.586 20.3835 19.0505 20.919 18.715 21.5775C18.3335 22.3262 18.3335 23.3063 18.3335 25.2665V32.7332C18.3335 34.6934 18.3335 35.6734 18.715 36.4221C19.0505 37.0807 19.586 37.6161 20.2445 37.9517C20.9932 38.3332 21.9733 38.3332 23.9335 38.3332Z" stroke="#344054" stroke-width="2" stroke-linecap="round" stroke-linejoin="round"/>
</g>
<defs>
<filter id="filter0_d_484_21948" x="0" y="0" width="60" height="60" filterUnits="userSpaceOnUse" color-interpolation-filters="sRGB">
<feFlood flood-opacity="0" result="BackgroundImageFix"/>
<feColorMatrix in="SourceAlpha" type="matrix" values="0 0 0 0 0 0 0 0 0 0 0 0 0 0 0 0 0 0 127 0" result="hardAlpha"/>
<feOffset dy="1"/>
<feGaussianBlur stdDeviation="1"/>
<feComposite in2="hardAlpha" operator="out"/>
<feColorMatrix type="matrix" values="0 0 0 0 0.0627451 0 0 0 0 0.0941176 0 0 0 0 0.156863 0 0 0 0.05 0"/>
<feBlend mode="normal" in2="BackgroundImageFix" result="effect1_dropShadow_484_21948"/>
<feBlend mode="normal" in="SourceGraphic" in2="effect1_dropShadow_484_21948" result="shape"/>
</filter>
</defs>
</svg>
