<svg width="44" height="44" viewBox="0 0 44 44" fill="none" xmlns="http://www.w3.org/2000/svg">
<path d="M36.3068 9.16283C35.8745 8.73061 35.4423 8.29839 35.0101 7.86617C33.7134 6.48307 32.3303 5.09997 30.6015 4.23553C28.6132 3.1982 26.4522 3.45752 24.2911 3.45752C21.0062 3.45752 12.794 3.45752 7.95312 3.45752L11.238 7.86617C17.2026 7.86617 26.5386 7.86617 30.8608 7.86617C32.6761 7.86617 34.2321 8.21195 35.7017 9.16283C35.961 9.24928 36.2203 9.24928 36.3068 9.16283Z" fill="#66C61C"/>
<path d="M39.9372 16.2517C39.505 15.8195 39.0728 15.3873 38.6406 14.955C37.3439 13.5719 35.9608 12.1888 34.2319 11.3244C32.2437 10.2871 30.0826 10.5464 27.9215 10.5464C25.0689 10.5464 18.2398 10.5464 13.3989 10.5464L16.6838 14.955C22.562 14.955 30.6013 14.955 34.5777 14.955C36.393 14.955 37.949 15.3008 39.4186 16.2517C39.5915 16.3381 39.7643 16.3381 39.9372 16.2517Z" fill="#4CA30D"/>
<path d="M44 23.1667C43.5677 22.7345 43.1355 22.3023 42.7033 21.8701C41.4066 20.487 40.0235 19.1039 38.2947 18.2394C36.3065 17.2021 34.1453 17.4614 31.9842 17.4614C29.3045 17.4614 23.4263 17.4614 18.6719 17.4614L21.9567 21.8701C27.662 21.8701 34.9234 21.8701 38.554 21.8701C40.3693 21.8701 41.9253 22.2159 43.3949 23.1667C43.6542 23.2532 43.8271 23.3396 44 23.1667Z" fill="#3B7C0F"/>
<path d="M7.60693 34.8373C8.03915 35.2695 8.47137 35.7017 8.90359 36.134C10.2003 37.5171 11.5834 38.9001 13.3122 39.7646C15.3004 40.8019 17.4615 40.5426 19.6226 40.5426H35.9606L32.6757 36.134C26.7111 36.134 17.3751 36.134 13.0529 36.134C11.2376 36.134 9.68159 35.7882 8.21204 34.8373C7.95271 34.7508 7.77982 34.7508 7.60693 34.8373Z" fill="#66C61C"/>
<path d="M3.97656 27.7484C4.40878 28.1806 4.841 28.6129 5.27322 29.0451C6.56988 30.4282 7.95298 31.8113 9.68186 32.6757C11.6701 33.7131 13.8312 33.4537 15.9923 33.4537H30.5149L27.23 29.0451C21.3518 29.0451 13.3125 29.0451 9.33609 29.0451C7.52076 29.0451 5.96477 28.6993 4.49522 27.7484C4.32233 27.662 4.14945 27.662 3.97656 27.7484Z" fill="#4CA30D"/>
<path d="M0 20.7465C0.43222 21.1787 0.86444 21.6109 1.29666 22.0431C2.59332 23.4262 3.97643 24.8094 5.70531 25.6738C7.69352 26.7111 9.85461 26.4518 12.0157 26.4518H25.3281L22.0432 22.0431C16.3379 22.0431 9.07662 22.0431 5.44598 22.0431C3.63065 22.0431 2.07465 21.6974 0.605106 20.7465C0.345773 20.66 0.172888 20.66 0 20.7465Z" fill="#3B7C0F"/>
</svg>
