<svg width="44" height="44" viewBox="0 0 44 44" fill="none" xmlns="http://www.w3.org/2000/svg">
<g clip-path="url(#clip0_1532_8808)">
<path d="M27.2694 2.12121L23.0486 0.990234L19.4917 14.2649L16.2804 2.28044L12.0595 3.41141L15.5291 16.3597L6.88724 7.71792L3.79738 10.8078L13.2764 20.2869L1.47179 17.1238L0.34082 21.3446L13.2388 24.8006C13.0912 24.1637 13.0131 23.5001 13.0131 22.8182C13.0131 17.9915 16.9258 14.0787 21.7525 14.0787C26.5792 14.0787 30.492 17.9915 30.492 22.8182C30.492 23.4957 30.4148 24.1552 30.269 24.7884L41.9909 27.9293L43.1218 23.7085L30.1725 20.2387L41.9779 17.0754L40.8469 12.8546L27.8981 16.3242L36.54 7.68244L33.4501 4.59258L24.1026 13.9402L27.2694 2.12121Z" fill="#FF4405"/>
<path d="M30.2567 24.8376C29.8948 26.3675 29.1308 27.7419 28.0825 28.8431L36.5745 37.3352L39.6644 34.2453L30.2567 24.8376Z" fill="#FF4405"/>
<path d="M27.9968 28.9318C26.9359 30.0154 25.5951 30.8241 24.0916 31.2408L27.1817 42.7731L31.4025 41.642L27.9968 28.9318Z" fill="#FF4405"/>
<path d="M23.934 31.283C23.2364 31.4623 22.5053 31.5576 21.7518 31.5576C20.9446 31.5576 20.1629 31.4481 19.4208 31.2433L16.3279 42.7861L20.5487 43.917L23.934 31.283Z" fill="#FF4405"/>
<path d="M19.2715 31.2007C17.791 30.7633 16.4741 29.9443 15.4348 28.8577L6.92192 37.3706L10.0118 40.4604L19.2715 31.2007Z" fill="#FF4405"/>
<path d="M15.3647 28.7824C14.3432 27.6888 13.5992 26.3328 13.2451 24.8265L1.48486 27.9776L2.61582 32.1984L15.3647 28.7824Z" fill="#FF4405"/>
</g>
<defs>
<clipPath id="clip0_1532_8808">
<rect width="44" height="44" fill="white"/>
</clipPath>
</defs>
</svg>
